<svg xmlns="http://www.w3.org/2000/svg" viewBox="0 0 200 200" width="200" height="200">
  <defs>
    <linearGradient id="goldGrad" x1="0%" y1="0%" x2="100%" y2="100%">
      <stop offset="0%" style="stop-color:#D4AF37"/>
      <stop offset="50%" style="stop-color:#C5A55A"/>
      <stop offset="100%" style="stop-color:#B8941F"/>
    </linearGradient>
    <linearGradient id="shieldGrad" x1="0%" y1="0%" x2="0%" y2="100%">
      <stop offset="0%" style="stop-color:#1A3A6B"/>
      <stop offset="100%" style="stop-color:#0B1D3A"/>
    </linearGradient>
  </defs>
  <circle cx="100" cy="100" r="96" fill="#0B1D3A" stroke="url(#goldGrad)" stroke-width="3"/>
  <circle cx="100" cy="100" r="88" fill="none" stroke="url(#goldGrad)" stroke-width="1" opacity="0.5"/>
  <path id="topArc" d="M 30,100 a 70,70 0 0,1 140,0" fill="none"/>
  <path id="bottomArc" d="M 170,100 a 70,70 0 0,1 -140,0" fill="none"/>
  <text fill="url(#goldGrad)" font-family="Georgia, 'Times New Roman', serif" font-size="11" font-weight="700" letter-spacing="4">
    <textPath href="#topArc" startOffset="50%" text-anchor="middle">VERISURE</textPath>
  </text>
  <text fill="url(#goldGrad)" font-family="Georgia, 'Times New Roman', serif" font-size="8" letter-spacing="3">
    <textPath href="#bottomArc" startOffset="50%" text-anchor="middle">INTELLIGENCE</textPath>
  </text>
  <path d="M100,55 L130,70 L130,105 C130,125 115,140 100,148 C85,140 70,125 70,105 L70,70 Z" fill="url(#shieldGrad)" stroke="url(#goldGrad)" stroke-width="2"/>
  <path d="M100,62 L125,75 L125,103 C125,120 112,134 100,141 C88,134 75,120 75,103 L75,75 Z" fill="none" stroke="url(#goldGrad)" stroke-width="0.5" opacity="0.4"/>
  <polyline points="85,100 95,112 118,85" fill="none" stroke="url(#goldGrad)" stroke-width="4" stroke-linecap="round" stroke-linejoin="round"/>
  <circle cx="100" cy="100" r="96" fill="none" stroke="url(#goldGrad)" stroke-width="0.5" opacity="0.2"/>
</svg>